<svg width="25" height="24" viewBox="0 0 25 24" fill="none" xmlns="http://www.w3.org/2000/svg">
<g clip-path="url(#clip0_356_3756)">
<path d="M13.9269 3.42676H24.0017V4.43476H13.9269V3.42676Z" fill="#D81E34"/>
<path d="M13.9269 4.43457H24.0017V5.44257H13.9269V4.43457Z" fill="white"/>
<path d="M13.9269 5.44141H24.0017V6.4494H13.9269V5.44141Z" fill="#D81E34"/>
<path d="M13.9269 6.88477H24.0017V7.89277H13.9269V6.88477Z" fill="white"/>
<path d="M13.9269 8.03809H24.0017V9.04608H13.9269V8.03809Z" fill="#D81E34"/>
<path d="M13.9269 9.19043H24.0017V10.1984H13.9269V9.19043Z" fill="white"/>
<path d="M13.9269 10.3438H24.0017V11.3518H13.9269V10.3438Z" fill="#D81E34"/>
<path d="M13.9269 11.4961H24.0017V12.5041H13.9269V11.4961Z" fill="white"/>
<path d="M0 12.6494V13.6574H24V12.6494H0Z" fill="#D81E34"/>
<path d="M0 13.8018H24V14.8098H0V13.8018Z" fill="white"/>
<path d="M0 14.9531H24V15.9611H0V14.9531Z" fill="#D81E34"/>
<path d="M0 16.3984H24V17.4064H0V16.3984Z" fill="white"/>
<path d="M0 17.4072H24V18.4152H0V17.4072Z" fill="#D81E34"/>
<path d="M0 18.4111H24V19.4191H0V18.4111Z" fill="white"/>
<path d="M14.1034 11.4959V3.42676H0V12.6496H14.1017L14.1034 11.4959ZM5.79429 11.4959C4.93565 11.4361 4.1356 11.0388 3.56897 10.3909C3.00235 9.74299 2.7152 8.89714 2.77029 8.03819C2.7152 7.17923 3.00235 6.33339 3.56897 5.68549C4.1356 5.03759 4.93565 4.64032 5.79429 4.58047C6.17161 4.5844 6.54428 4.6643 6.89006 4.81539C7.23584 4.96649 7.54764 5.18568 7.80686 5.4599C7.40307 5.1713 6.91974 5.01498 6.42343 5.01247C5.6716 5.06486 4.97095 5.4123 4.47419 5.97906C3.97742 6.54583 3.72482 7.28598 3.77143 8.03819C3.72429 8.78958 3.97575 9.52919 4.47111 10.0961C4.96647 10.6631 5.66565 11.0115 6.41657 11.0656C6.91289 11.0631 7.39621 10.9068 7.8 10.6182C7.54024 10.8917 7.22833 11.1104 6.88267 11.2615C6.53702 11.4125 6.16461 11.4928 5.78743 11.4976L5.79429 11.4959ZM11.2714 8.67933L9.72857 8.53704L10.7897 9.83819L9.44914 8.9399L9.912 10.6336L9.04286 9.16276L8.82 10.9233L8.65543 9.65647L8.61086 9.29476L8.59372 9.1559L7.72457 10.6268L8.18914 8.93304L6.84857 9.83133L7.90971 8.53019L6.36686 8.67247L7.81543 8.03133L6.36686 7.39019L7.90971 7.53247L6.84857 6.23476L8.18914 7.12961L7.72457 5.4359L8.592 6.91362L8.60914 6.77819L8.65371 6.41476L8.81486 5.15647L9.03943 6.91362L9.90857 5.44276L9.44571 7.13647L10.7863 6.24162L9.72514 7.53933L11.268 7.39704L9.82114 8.03819L11.2714 8.67933Z" fill="#110860"/>
<path d="M14.1086 3.43164H0V12.6545H14.1086V3.43164Z" fill="#110860"/>
<path d="M3.77826 7.89248C3.75795 7.17003 4.02504 6.46902 4.52092 5.94325C5.01681 5.41747 5.701 5.10987 6.4234 5.08791C6.91512 5.08845 7.39596 5.23264 7.80683 5.50276C7.26589 4.98225 6.54495 4.69056 5.79426 4.68848C4.97818 4.73844 4.2119 5.09784 3.6517 5.69338C3.09151 6.28891 2.7796 7.07573 2.7796 7.89334C2.7796 8.71094 3.09151 9.49775 3.6517 10.0933C4.2119 10.6888 4.97818 11.0482 5.79426 11.0982C6.54457 11.0942 7.26482 10.8028 7.80683 10.2839C7.39596 10.554 6.91512 10.6982 6.4234 10.6988C5.7007 10.6768 5.01624 10.369 4.5203 9.84281C4.02437 9.31667 3.75749 8.61522 3.77826 7.89248V7.89248Z" fill="#F8D534"/>
<path d="M9.7234 7.4162L10.7845 6.17848L9.44226 7.03563L9.90512 5.42077L9.03597 6.82306L8.81312 5.14648L8.65198 6.34649L8.6074 6.68934L8.59026 6.81791L7.72112 5.41563L8.18569 7.03048L6.84512 6.17334L7.90626 7.41105L6.3634 7.27563L7.81198 7.88591L6.3634 8.4962L7.90626 8.36077L6.84512 9.60191L8.18569 8.74477L7.72112 10.3596L8.59026 8.95734L8.6074 9.08934L8.65198 9.4322L8.81312 10.6322L9.03597 8.9522L9.90512 10.3545L9.44226 8.73963L10.7845 9.59677L9.7234 8.35563L11.2663 8.49106L9.8194 7.88077L11.2663 7.27049L9.7234 7.4162Z" fill="#F8D534"/>
</g>
<defs>
<clipPath id="clip0_356_3756">
<rect width="24.0017" height="24" fill="white"/>
</clipPath>
</defs>
</svg>
