<svg id="Icon_solid_avatar" data-name="Icon/solid/avatar" xmlns="http://www.w3.org/2000/svg" width="32" height="32" viewBox="0 0 32 32"><path id="Vector" d="M28.3 26.206a16.012 16.012 0 1 0-24.587 0l-.023.019c.08.1.172.178.254.273.1.118.214.229.32.343.32.347.65.681.995.994.105.1.214.185.32.277.366.315.742.615 1.132.894.05.034.1.079.146.114v-.014a15.909 15.909 0 0 0 18.3 0v.014c.05-.035.095-.08.146-.114q.583-.42 1.132-.894c.106-.091.215-.182.32-.277.345-.314.675-.647.995-.994.106-.114.216-.225.32-.343.081-.095.174-.177.254-.274ZM16.011 6.859a5.144 5.144 0 1 1-3.639 1.506 5.15 5.15 0 0 1 3.639-1.506ZM6.87 26.206a5.712 5.712 0 0 1 5.71-5.634h6.862a5.712 5.712 0 0 1 5.71 5.634 13.664 13.664 0 0 1-18.283 0Z" fill="#8c8c8c"/></svg>
