<svg width="24" height="24" viewBox="0 0 24 24" fill="none" xmlns="http://www.w3.org/2000/svg">
<path d="M24 3.42871H0V19.423H24V3.42871Z" fill="#F0F0F0"/>
<path d="M13.5 3.42871H10.5V9.92585H0V12.9259H10.5V19.423H13.5V12.9259H24V9.92585H13.5V3.42871Z" fill="#D80027"/>
<path d="M18.4611 14.208L24 17.2937V14.208H18.4611Z" fill="#0052B4"/>
<path d="M14.6125 14.208L23.9999 19.4229V17.9486L17.2663 14.208H14.6125Z" fill="#0052B4"/>
<path d="M21.5006 19.4225L14.6125 15.5996V19.4259L21.5006 19.4225Z" fill="#0052B4"/>
<path d="M14.6126 14.208L24 19.4229V17.9486L17.2663 14.208H14.6126Z" fill="#F0F0F0"/>
<path d="M14.6126 14.208L24 19.4229V17.9486L17.2663 14.208H14.6126Z" fill="#D80027"/>
<path d="M4.23257 14.208L0 16.56V14.208H4.23257Z" fill="#0052B4"/>
<path d="M9.38917 14.8711V19.4242H1.19489L9.38917 14.8711Z" fill="#0052B4"/>
<path d="M6.73371 14.208L0 17.9486V19.4229L9.38743 14.208H6.73371Z" fill="#D80027"/>
<path d="M5.53886 8.64357L0 5.56641V8.65213L5.53886 8.64357Z" fill="#0052B4"/>
<path d="M9.38743 8.64357L0 3.42871V4.903L6.73371 8.64357H9.38743Z" fill="#0052B4"/>
<path d="M2.50116 3.42871L9.38916 7.25499V3.42871H2.50116Z" fill="#0052B4"/>
<path d="M9.38743 8.64357L0 3.42871V4.903L6.73371 8.64357H9.38743Z" fill="#F0F0F0"/>
<path d="M9.38743 8.64357L0 3.42871V4.903L6.73371 8.64357H9.38743Z" fill="#D80027"/>
<path d="M19.7674 8.64496L24 6.29297V8.64496H19.7674Z" fill="#0052B4"/>
<path d="M14.6125 7.98185V3.42871H22.8068L14.6125 7.98185Z" fill="#0052B4"/>
<path d="M17.2663 8.64357L24 4.903V3.42871L14.6126 8.64357H17.2663Z" fill="#D80027"/>
</svg>
