<svg width="24" height="24" viewBox="0 0 24 24" fill="none" xmlns="http://www.w3.org/2000/svg">
<path d="M24 3.42871H0V19.423H24V3.42871Z" fill="#E92724"/>
<path d="M3.65141 5.10059L5.1257 9.63144L1.26855 6.8303H6.03427L2.17713 9.63144L3.65141 5.10059Z" fill="#FFDE00"/>
<path d="M8.15312 4.3291L8.01426 5.91139L7.19484 4.55196L8.65541 5.17424L7.11255 5.53082L8.15312 4.3291Z" fill="#FFDE00"/>
<path d="M10.0954 6.18313L9.35141 7.58713L9.12513 6.01855L10.2343 7.15684L8.66913 6.88256L10.0954 6.18313Z" fill="#FFDE00"/>
<path d="M10.2772 8.98631L9.02918 9.96517L9.46461 8.43945L10.008 9.93088L8.69147 9.0446L10.2772 8.98631Z" fill="#FFDE00"/>
<path d="M8.12056 10.1572L8.04685 11.7447L7.17256 10.4195L8.65885 10.9801L7.12799 11.4018L8.12056 10.1572Z" fill="#FFDE00"/>
</svg>
