<svg data-name="Icon/solid/Money" xmlns="http://www.w3.org/2000/svg" width="14" height="14" viewBox="0 0 14 14" fill="currentColor"><path data-name="Rectangle 538" style="fill:none" d="M0 0h14v14H0z"/><path data-name="Union 20" d="M1.409 11.377a.243.243 0 0 1-.243-.234V4.698a.24.24 0 0 1 .243-.23h11.183a.236.236 0 0 1 .243.23v6.445a.24.24 0 0 1-.243.234Zm1.459-5.76a.472.472 0 0 1-.486.463.239.239 0 0 0-.243.229v3.227a.238.238 0 0 0 .243.229.473.473 0 0 1 .486.463.235.235 0 0 0 .243.225h7.779a.232.232 0 0 0 .243-.225.473.473 0 0 1 .485-.463.235.235 0 0 0 .243-.229V6.309a.236.236 0 0 0-.243-.229.472.472 0 0 1-.485-.463.235.235 0 0 0-.243-.229H3.111a.238.238 0 0 0-.243.229Zm.458 4.375a.947.947 0 0 0-.7-.658V6.51a.947.947 0 0 0 .7-.658h7.354a.948.948 0 0 0 .7.658v2.824a.948.948 0 0 0-.7.658Zm2.7-1.383a.237.237 0 0 0 .243.234h.486V9.3a.24.24 0 0 0 .243.234.24.24 0 0 0 .243-.234v-.457h.486a.237.237 0 0 0 .242-.234.235.235 0 0 0-.242-.229h-.486v-.23h.486a.235.235 0 0 0 .242-.229.232.232 0 0 0-.242-.229H7.31l.852-1.01a.219.219 0 0 0-.042-.322.248.248 0 0 0-.342.037l-.78.926-.781-.926a.247.247 0 0 0-.341-.037.222.222 0 0 0-.042.322l.855 1.01h-.421a.232.232 0 0 0-.243.229.235.235 0 0 0 .243.229h.486v.23h-.486a.235.235 0 0 0-.24.229Zm2.917-.687a.235.235 0 0 0 .243.229.235.235 0 0 0 .243-.229.232.232 0 0 0-.243-.229.232.232 0 0 0-.241.232Zm-4.376 0a.238.238 0 0 0 .243.229.235.235 0 0 0 .243-.229.232.232 0 0 0-.243-.229.235.235 0 0 0-.242.232ZM2.136 4.004a.235.235 0 0 1-.243-.229.238.238 0 0 1 .243-.229h9.724a.235.235 0 0 1 .243.229.232.232 0 0 1-.243.229Zm.973-.916a.243.243 0 0 1-.243-.234.239.239 0 0 1 .243-.229h7.779a.237.237 0 0 1 .243.229.24.24 0 0 1-.243.234Z"/></svg>
