<svg data-name="Icon/solid/preview" xmlns="http://www.w3.org/2000/svg" width="24" height="24"><path data-name="Rectangle 493" fill="none" d="M0 0h24v24H0z"/><path data-name="Union 11" d="M12 20.569A12.639 12.639 0 0 1 .072 12.428a1.31 1.31 0 0 1 0-.857A12.639 12.639 0 0 1 12 3.428a12.64 12.64 0 0 1 11.928 8.143 1.317 1.317 0 0 1 0 .857 12.644 12.644 0 0 1-11.748 8.143Zm-4.8-8.57a4.848 4.848 0 0 0 4.8 4.9 4.847 4.847 0 0 0 4.8-4.9 4.8 4.8 0 1 0-9.6 0Zm2.4 0a2.4 2.4 0 1 1 2.4 2.449 2.425 2.425 0 0 1-2.4-2.449Z" fill="currentColor"/></svg>
