<svg id="Icon_line_circle" data-name="Icon/line/circle" xmlns="http://www.w3.org/2000/svg" width="18" height="18" viewBox="0 0 18 18"><path id="Rectangle_415" data-name="Rectangle 415" fill="none" d="M0 0h18v18H0z"/><g id="Path_142" data-name="Path 142" fill="none"><path d="M8 0a8 8 0 1 1-8 8 8 8 0 0 1 8-8Z" transform="translate(1 1)"/><path d="M8 2C4.69159 2 2 4.69159 2 8s2.69159 6 6 6 6-2.69159 6-6-2.69159-6-6-6m0-2c4.41828 0 8 3.58172 8 8s-3.58172 8-8 8-8-3.58172-8-8 3.58172-8 8-8Z" fill="#389e0d" transform="translate(1 1)"/></g></svg>
