<svg id="Icon_solid_history-log" data-name="Icon/solid/history-log" xmlns="http://www.w3.org/2000/svg" width="24" height="24" viewBox="0 0 24 24"><path id="Rectangle_532" data-name="Rectangle 532" style="fill:none" d="M0 0h24v24H0z"/><path id="Union_17" data-name="Union 17" d="M10.949 20.09a4.482 4.482 0 0 1 .58-5.043 5.45 5.45 0 0 1 6.291-1.375 4.69 4.69 0 0 1 2.826 5.375 5.091 5.091 0 0 1-5.045 3.73 5.23 5.23 0 0 1-4.652-2.687Zm3.828-4.465v2.82a.313.313 0 0 0 .152.254l1.537.91a.357.357 0 0 0 .332.016.287.287 0 0 0 .18-.266.294.294 0 0 0-.154-.27l-1.385-.82v-2.644a.314.314 0 0 0-.332-.309.319.319 0 0 0-.33.309ZM1.984 18.832a1.985 1.985 0 0 1-1.34-.512 1.7 1.7 0 0 1-.563-1.242L0 1.813A1.831 1.831 0 0 1 1.9.043L9.535 0l.018 2.871a2.482 2.482 0 0 0 2.568 2.367h.018l3.105-.012.035 7.379A5.592 5.592 0 0 0 9.768 18a4.721 4.721 0 0 0 .064.793l-7.838.043Zm5-7.855a.318.318 0 0 0 .332.3h1.12a.3.3 0 1 0 0-.605H7.318a.32.32 0 0 0-.332.305Zm-4.312 0a.31.31 0 0 0 .322.3H5.9a.3.3 0 1 0 0-.605H3a.312.312 0 0 0-.326.305Zm0-2.6a.312.312 0 0 0 .322.3h9.3a.317.317 0 0 0 .328-.3.325.325 0 0 0-.322-.307H3a.32.32 0 0 0-.326.309Zm9.482-3.965a1.767 1.767 0 0 1-1.207-.461 1.513 1.513 0 0 1-.51-1.113l-.01-2.2 4.128 3.772h-2.381Z" transform="translate(1.613 .611)" style="fill:#fff"/></svg>
