<svg id="Icon_solid_flag-malaysia" data-name="Icon/solid/flag-malaysia" xmlns="http://www.w3.org/2000/svg" width="24" height="23.998"><defs><style>.cls-2{fill:#d81e34}.cls-3{fill:#fff}.cls-4{fill:#110860}.cls-5{fill:#f8d534}</style></defs><path id="Rectangle_419" data-name="Rectangle 419" style="fill:none" d="M0 0h23.999v23.999H0z"/><g id="Group_564" data-name="Group 564" transform="translate(0 3.427)"><path id="Path_54" data-name="Path 54" class="cls-2" d="M36.865 14.966h10.074v1.008H36.865Z" transform="translate(-22.939 -14.966)"/><path id="Path_55" data-name="Path 55" class="cls-3" d="M36.865 17.4h10.074v1.007H36.865Z" transform="translate(-22.939 -16.392)"/><path id="Path_56" data-name="Path 56" class="cls-2" d="M36.865 19.833h10.074v1.007H36.865Z" transform="translate(-22.939 -17.818)"/><path id="Path_57" data-name="Path 57" class="cls-3" d="M36.865 22.266h10.074v1.008H36.865Z" transform="translate(-22.939 -18.808)"/><path id="Path_58" data-name="Path 58" class="cls-2" d="M36.865 24.7h10.074v1.007H36.865Z" transform="translate(-22.939 -20.089)"/><path id="Path_59" data-name="Path 59" class="cls-3" d="M36.865 27.133h10.074v1.008H36.865Z" transform="translate(-22.939 -21.369)"/><path id="Path_60" data-name="Path 60" class="cls-2" d="M36.865 29.567h10.074v1.008H36.865Z" transform="translate(-22.939 -22.65)"/><path id="Path_61" data-name="Path 61" class="cls-3" d="M36.865 32h10.074v1.007H36.865Z" transform="translate(-22.939 -23.931)"/><path id="Path_62" data-name="Path 62" class="cls-2" d="M2.8 34.434v1.007h24v-1.007h-24Z" transform="translate(-2.8 -25.211)"/><path id="Path_63" data-name="Path 63" class="cls-3" d="M2.8 36.867h24v1.008h-24Z" transform="translate(-2.8 -26.492)"/><path id="Path_64" data-name="Path 64" class="cls-2" d="M2.8 39.3h24v1.007h-24Z" transform="translate(-2.8 -27.773)"/><path id="Path_65" data-name="Path 65" class="cls-3" d="M2.8 41.734h24v1.007h-24Z" transform="translate(-2.8 -28.762)"/><path id="Path_66" data-name="Path 66" class="cls-2" d="M2.8 44.167h24v1.008h-24Z" transform="translate(-2.8 -30.188)"/><path id="Path_67" data-name="Path 67" class="cls-3" d="M2.8 46.6h24v1.007h-24Z" transform="translate(-2.8 -31.615)"/><path id="Path_68" data-name="Path 68" class="cls-4" d="M16.9 23.035v-8.069H2.8v9.222h14.1Zm-8.309 0a3.262 3.262 0 0 1-3.021-3.458 3.263 3.263 0 0 1 3.023-3.458 2.809 2.809 0 0 1 2.013.881 2.394 2.394 0 0 0-1.384-.448 2.857 2.857 0 0 0-2.645 3.027A2.857 2.857 0 0 0 9.222 22.6a2.4 2.4 0 0 0 1.384-.448 2.824 2.824 0 0 1-2.012.879Zm5.476-2.817-1.546-.142 1.061 1.3-1.341-.9.463 1.694-.866-1.47-.223 1.761-.161-1.261-.045-.361-.018-.138-.869 1.471.465-1.694-1.341.9 1.061-1.3-1.547.142 1.448-.64-1.448-.644 1.547.142-1.061-1.3 1.341.9-.465-1.694.869 1.471.018-.135.045-.364.161-1.259.223 1.758.869-1.471-.463 1.694 1.341-.9-1.061 1.3 1.546-.142-1.447.641Z" transform="translate(-2.8 -14.966)"/><path id="Rectangle_523" data-name="Rectangle 523" class="cls-4" transform="translate(0 .005)" d="M0 0h14.108v9.222H0z"/><g id="Group_550" data-name="Group 550" transform="translate(2.77 1.26)"><path id="Path_69" data-name="Path 69" class="cls-5" d="M10.5 20.6a2.73 2.73 0 0 1 2.645-2.8 2.524 2.524 0 0 1 1.384.415 2.919 2.919 0 0 0-2.013-.815 3.21 3.21 0 0 0 0 6.41 2.933 2.933 0 0 0 2.01-.81 2.524 2.524 0 0 1-1.384.415A2.73 2.73 0 0 1 10.5 20.6Z" transform="translate(-9.49 -17.4)"/><path id="Path_70" data-name="Path 70" class="cls-5" d="m21.526 20.888 1.061-1.237-1.342.854.464-1.615-.869 1.4-.223-1.676-.161 1.2-.045.347-.018.129-.869-1.4.465 1.615-1.341-.854 1.061 1.237-1.547-.135 1.448.611-1.448.611 1.547-.135-1.061 1.241 1.341-.856-.465 1.614.869-1.4.018.132.045.344.161 1.2.223-1.679.869 1.4-.464-1.614 1.342.856-1.061-1.238 1.546.135-1.447-.611 1.447-.611Z" transform="translate(-14.572 -18.16)"/></g></g></svg>
