<svg id="Icon_line_view" data-name="Icon/line/view" xmlns="http://www.w3.org/2000/svg" width="14" height="14"><path id="Union_2" data-name="Union 2" d="M1.5 14A1.505 1.505 0 0 1 0 12.5v-11A1.505 1.505 0 0 1 1.5 0h6.019a.407.407 0 0 1 .29.121l2.734 2.734a.407.407 0 0 1 .121.29v2.01a2.874 2.874 0 0 1 1.165 4.359l2.051 2.05a.41.41 0 0 1-.581.581l-2.05-2.051a2.888 2.888 0 0 1-.585.339V12.5A1.506 1.506 0 0 1 9.16 14ZM.82 1.5v11a.684.684 0 0 0 .684.683H9.16a.683.683 0 0 0 .683-.683v-1.853a2.786 2.786 0 0 1-.314.017 2.871 2.871 0 1 1 0-5.742 3.019 3.019 0 0 1 .314.017V3.555H7.519a.41.41 0 0 1-.41-.41V.821H1.5a.685.685 0 0 0-.68.679Zm7.259 4.843a2.051 2.051 0 0 0 1.45 3.5 2.074 2.074 0 0 0 .589-.086l.028-.009a2.027 2.027 0 0 0 .833-.507 2.052 2.052 0 0 0-.833-3.406l-.028-.009a2.074 2.074 0 0 0-.589-.085 2.037 2.037 0 0 0-1.45.602ZM7.93 2.735h1.334L7.93 1.4Zm-5.87 7.383a.412.412 0 0 1 0-.824h3.57a.412.412 0 1 1 0 .824Zm0-1.641a.412.412 0 1 1 0-.823h3.57a.412.412 0 1 1 0 .823Zm0-1.64a.412.412 0 1 1 0-.823h3.57a.412.412 0 1 1 0 .823Zm0-1.64a.412.412 0 0 1 0-.824h4.669a.412.412 0 1 1 0 .824Z" fill="currentColor"/></svg>
