<svg xmlns="http://www.w3.org/2000/svg" width="14" height="14" viewBox="0 0 14 14" fill="currentColor"><g id="Icon_solid_download" data-name="Icon/solid/download" transform="translate(.283)"><path id="Rectangle_489" data-name="Rectangle 489" transform="translate(-.283)" style="fill:none" d="M0 0h14v14H0z"/><path id="Union_10" data-name="Union 10" d="M.8 14a.84.84 0 0 1-.8-.875v-3.5h1.6v2.625h8.8V9.625H12v3.5a.839.839 0 0 1-.8.875Zm4.9-3.65-2.8-3.5a.468.468 0 0 1-.063-.469.4.4 0 0 1 .363-.256h1.6V.438A.42.42 0 0 1 5.2 0h1.6a.42.42 0 0 1 .4.438v5.687h1.6a.4.4 0 0 1 .364.256.468.468 0 0 1-.064.469l-2.8 3.5a.377.377 0 0 1-.6 0Z" transform="translate(.937)" style="fill:#8c8c8c"/></g></svg>
