<svg data-name="Icon/solid/delete" xmlns="http://www.w3.org/2000/svg" width="24" height="24" viewBox="0 0 24 24"><path data-name="Rectangle 488" fill="none" d="M0 0h24v24H0z"/><path data-name="Union 9" d="M6.404 24a2.09 2.09 0 0 1-2.049-1.935L3.14 7.031h17.719l-1.215 15.034A2.089 2.089 0 0 1 17.595 24Zm4.91-14.859v11.343a.686.686 0 1 0 1.372 0V9.141a.686.686 0 1 0-1.372 0Zm-3.471-.7a.7.7 0 0 0-.641.746l.686 11.344a.686.686 0 1 0 1.369-.088L8.57 9.1a.683.683 0 0 0-.676-.66Zm7.587.658-.686 11.341a.686.686 0 1 0 1.369.088l.686-11.344a.7.7 0 0 0-.642-.746h-.023a.7.7 0 0 0-.704.662ZM3.086 5.625a1.407 1.407 0 0 1 0-2.812H7.2v-.7A2.086 2.086 0 0 1 9.257 0h5.486A2.086 2.086 0 0 1 16.8 2.109v.7h4.114a1.407 1.407 0 0 1 0 2.812Zm5.485-3.516v.7h6.857v-.7a.7.7 0 0 0-.686-.7H9.257a.7.7 0 0 0-.686.7Z" fill="currentColor"/></svg>
