<svg xmlns="http://www.w3.org/2000/svg" width="24" height="24" fill="currentColor"><path d="M.644 18A.644.644 0 0 1 0 17.357V3.215a.645.645 0 0 1 .644-.643h1.927V.644A.645.645 0 0 1 3.215 0h11.571a.644.644 0 0 1 .643.644v6.427h1.929a.644.644 0 0 1 .642.644v9.643a.642.642 0 0 1-.643.643Zm.643-1.285h15.428v-1.286H1.286Zm0-4.5h1.284V5.786H1.286ZM9.3 7.071h4.847V1.286H3.857v1.285h1.286a.647.647 0 0 1 .488.225L7.611 5.1h4.6a.643.643 0 1 1 0 1.285h-3.5ZM9 3.857a.643.643 0 0 1 0-1.286h3.215a.643.643 0 1 1 0 1.286Z" transform="translate(3 3)" style="fill:#fff"/></svg>
