<svg width="24" height="24" viewBox="0 0 24 24" fill="none" xmlns="http://www.w3.org/2000/svg">
<path d="M24 3.42676H0V19.4262H24V3.42676Z" fill="#E71E12"/>
<path d="M12 3.42676H0V11.4273H12V3.42676Z" fill="#0052B4"/>
<path d="M8.73941 7.42431L7.61999 7.95059L8.21656 9.03403L7.00113 8.80088L6.84684 10.0283L5.99999 9.12489L5.15312 10.0283L4.99884 8.80088L3.78342 9.03403L4.37999 7.95059L3.26056 7.42431L4.37999 6.89802L3.78342 5.8146L4.99884 6.04773L5.15312 4.82031L5.99999 5.72374L6.84684 4.82031L7.00113 6.04773L8.21656 5.8146L7.61999 6.89802L8.73941 7.42431Z" fill="#F0F0F0"/>
<path d="M5.99999 8.78526C6.75078 8.78526 7.35942 8.17663 7.35942 7.42583C7.35942 6.67504 6.75078 6.06641 5.99999 6.06641C5.2492 6.06641 4.64056 6.67504 4.64056 7.42583C4.64056 8.17663 5.2492 8.78526 5.99999 8.78526Z" fill="#0052B4"/>
<path d="M6 8.33472C5.8203 8.33472 5.64464 8.28143 5.49523 8.1816C5.34582 8.08176 5.22936 7.93987 5.16059 7.77385C5.09182 7.60783 5.07383 7.42516 5.10889 7.24891C5.14395 7.07266 5.23048 6.91076 5.35755 6.78369C5.48461 6.65662 5.64649 6.57009 5.82274 6.53503C5.99898 6.49998 6.18167 6.51798 6.34769 6.58675C6.51371 6.65552 6.65562 6.77197 6.75545 6.92139C6.85529 7.0708 6.90857 7.24646 6.90857 7.42616C6.90811 7.66698 6.81225 7.89783 6.64195 8.06812C6.47166 8.23842 6.24083 8.33427 6 8.33472V8.33472Z" fill="#F0F0F0"/>
</svg>
