<svg id="Icon_-_tooltip" data-name="Icon - tooltip" xmlns="http://www.w3.org/2000/svg" width="18" height="18" viewBox="0 0 18 18"><g id="Icon_line_duplicate" data-name="Icon/line/duplicate"><path id="Rectangle_525" data-name="Rectangle 525" fill="none" d="M0 0h18v18H0z"/><path id="Union_14" data-name="Union 14" d="M1.749 18A1.715 1.715 0 0 1 0 16.338V3.561A1.7 1.7 0 0 1 1.749 1.9h.487v-.248A1.7 1.7 0 0 1 3.985 0h6a.348.348 0 0 1 .239.09c-.013-.018-.013-.035 4.883 4.6a.414.414 0 0 1 .1.252v9.49a1.706 1.706 0 0 1-1.744 1.66h-.486v.242A1.7 1.7 0 0 1 11.219 18ZM.713 3.539V16.32a1.014 1.014 0 0 0 1.036.982h9.47a1.014 1.014 0 0 0 1.037-.982v-.25H3.985a1.7 1.7 0 0 1-1.749-1.652V2.557h-.487a1.014 1.014 0 0 0-1.036.982Zm2.237-1.9v12.779a1.013 1.013 0 0 0 1.035.98h9.47a1.03 1.03 0 0 0 1.055-.98V5.273h-3.126a1.706 1.706 0 0 1-1.75-1.656V.652H3.985a1.014 1.014 0 0 0-1.035.983Zm7.372 1.982a1.013 1.013 0 0 0 1.036.979h2.621l-3.657-3.467Zm-1.4 7.018V9.193H7.378A.2.2 0 0 1 7.17 9a.2.2 0 0 1 .208-.2h1.549V7.334a.19.19 0 0 1 .2-.2.205.205 0 0 1 .208.2V8.8h1.535a.194.194 0 1 1 .007.385H9.343v1.453a.205.205 0 0 1-.208.2.2.2 0 0 1-.208-.203Z" transform="translate(1.4 .002)" fill="#8c8c8c"/></g></svg>
