<svg id="Icon_solid_policy" data-name="Icon/solid/policy" xmlns="http://www.w3.org/2000/svg" width="24" height="24" viewBox="0 0 24 24"><path id="Rectangle_533" data-name="Rectangle 533" style="fill:none" d="M0 0h24v24H0z"/><path id="Union_18" data-name="Union 18" d="M2.379 20.584A2.3 2.3 0 0 1 0 18.381V2.209A2.3 2.3 0 0 1 2.379 0h8.877v3.451a1.978 1.978 0 0 0 1.99 1.771h3.643v13.159a2.3 2.3 0 0 1-2.379 2.2ZM6.133 6.846l-.094.168a2.163 2.163 0 0 1-1.926 1.105.631.631 0 0 0-.652.605v3.446A5.917 5.917 0 0 0 4.8 15.9a6.711 6.711 0 0 0 3.459 2.25.755.755 0 0 0 .186.023.786.786 0 0 0 .189-.023 6.708 6.708 0 0 0 3.461-2.25 5.928 5.928 0 0 0 1.336-3.73V8.725a.632.632 0 0 0-.652-.605 2.163 2.163 0 0 1-1.929-1.106l-.1-.168a.646.646 0 0 0-.578-.334H6.715a.652.652 0 0 0-.582.334ZM5.027 12.17v-2.9A3.191 3.191 0 0 0 7.2 7.721h2.482a3.2 3.2 0 0 0 2.18 1.553v2.9a5.016 5.016 0 0 1-3.42 4.771 5.008 5.008 0 0 1-3.415-4.775Zm1.281-.248a.607.607 0 0 0 0 .852l1.137 1.139a.618.618 0 0 0 .859 0l2.275-2.277a.607.607 0 1 0-.859-.857l-1.845 1.85-.715-.707a.589.589 0 0 0-.424-.18.6.6 0 0 0-.427.18Zm7.986-7.469h-.779a1.38 1.38 0 0 1-1.1-.406 1.275 1.275 0 0 1-.32-.764V.268l3.914 4.186Z" transform="translate(3.554 1.708)" style="fill:#fff"/></svg>
