<svg id="Icon_line_CSV" data-name="Icon/line/CSV" xmlns="http://www.w3.org/2000/svg" width="14.004" height="14" viewBox="0 0 14.004 14"><path id="Rectangle_509" data-name="Rectangle 509" transform="translate(0 .002)" fill="none" d="M0 0h14.004v13.998H0z"/><path id="Union_13" data-name="Union 13" d="M1.246 14A.249.249 0 0 1 1 13.744V12H.247A.25.25 0 0 1 0 11.747v-4A.25.25 0 0 1 .247 7.5H1V.252A.249.249 0 0 1 1.246 0h7a.248.248 0 0 1 .157.057l.021.018 2.5 2.5a.207.207 0 0 1 .028.037.245.245 0 0 1 .048.141V7.5h.747a.251.251 0 0 1 .253.247v4a.251.251 0 0 1-.253.252H11v1.745a.25.25 0 0 1-.252.252Zm.252-.5h9V12h-9Zm10-2V8H.5v3.5h11Zm-1-4V3H8.249A.251.251 0 0 1 8 2.753V.5H1.5v7Zm-2-5h1.648L8.5.853ZM5.247 11A.254.254 0 0 1 5 10.749a.247.247 0 0 1 .252-.248H6.5V10h-1a.5.5 0 0 1-.5-.5V9a.5.5 0 0 1 .5-.5h1.246a.25.25 0 1 1 0 .5H5.5v.5h1a.5.5 0 0 1 .5.5v.5a.5.5 0 0 1-.5.5Zm-2 0a.754.754 0 0 1-.751-.752v-1a.751.751 0 0 1 .753-.748h.5a.75.75 0 0 1 .751.75.25.25 0 0 1-.5 0A.25.25 0 0 0 3.749 9h-.5A.251.251 0 0 0 3 9.25v1a.254.254 0 0 0 .252.252h.5A.253.253 0 0 0 4 10.249a.25.25 0 1 1 .5 0 .754.754 0 0 1-.751.751Zm5.015-.164-.752-2a.251.251 0 0 1 .472-.174l.518 1.371.516-1.373a.252.252 0 0 1 .322-.148.255.255 0 0 1 .145.322l-.751 2a.252.252 0 0 1-.468 0ZM2.75 6a.247.247 0 0 1-.25-.251.252.252 0 0 1 .25-.249h6.5a.25.25 0 0 1 .247.252.246.246 0 0 1-.248.248Zm0-1.5a.25.25 0 1 1 0-.5h6.5a.25.25 0 0 1 0 .5Z" transform="translate(1.001)" fill="currentColor"/></svg>
