<svg data-name="Icon/line/video" xmlns="http://www.w3.org/2000/svg" width="32" height="32"><path data-name="Rectangle 466" fill="none" d="M0 0h32v32H0z"/><path data-name="Union 4" d="M3.305 27.029A3.315 3.315 0 0 1 0 23.712V7.823a3.314 3.314 0 0 1 3.305-3.318h24.921a3.317 3.317 0 0 1 3.307 3.318v15.889a3.318 3.318 0 0 1-3.307 3.318ZM1.016 7.823v15.889a2.292 2.292 0 0 0 2.289 2.3h24.921a2.292 2.292 0 0 0 2.289-2.3V7.823a2.293 2.293 0 0 0-2.289-2.3H3.305a2.293 2.293 0 0 0-2.289 2.3ZM11.8 20.79a1.469 1.469 0 0 1-.739-1.285V12.03a1.48 1.48 0 0 1 2.22-1.287l6.453 3.737a1.49 1.49 0 0 1 0 2.575l-6.449 3.735a1.467 1.467 0 0 1-1.483 0Zm.506-9.163a.458.458 0 0 0-.231.4v7.478a.469.469 0 0 0 .233.4.46.46 0 0 0 .462 0l6.449-3.737a.465.465 0 0 0 0-.805l-6.449-3.736a.464.464 0 0 0-.228-.064.5.5 0 0 0-.235.064Z" fill="#434343"/></svg>
