<svg data-name="Icon/line/image" xmlns="http://www.w3.org/2000/svg" width="32" height="32"><path data-name="Rectangle 467" fill="none" d="M0 0h32v32H0z"/><path data-name="Union 5" d="M1.6 27.427A1.581 1.581 0 0 1 0 25.87V6.129A1.581 1.581 0 0 1 1.6 4.57h28.8A1.581 1.581 0 0 1 32 6.129v19.735a1.581 1.581 0 0 1-1.6 1.558Zm4.427-12.835-4.96 4.832v6.446a.527.527 0 0 0 .533.52h3.6l6.844-6.664-5.271-5.13a.541.541 0 0 0-.748 0Zm16.534-3.637L6.712 26.388H30.4a.528.528 0 0 0 .533-.52V18.38l-7.625-7.422a.54.54 0 0 0-.748 0Zm-15.03 2.907L12.8 18.99l9-8.767a1.658 1.658 0 0 1 2.261 0l6.869 6.685V6.129a.527.527 0 0 0-.533-.52H1.6a.527.527 0 0 0-.533.52v11.826l4.2-4.1a1.657 1.657 0 0 1 2.261 0Zm2.6-2.539a3.2 3.2 0 0 1 6.4 0 3.2 3.2 0 0 1-6.4 0Zm1.067 0a2.134 2.134 0 1 0 2.133-2.078 2.109 2.109 0 0 0-2.131 2.078Z" fill="#434343"/></svg>
