<svg id="Icon_solid_user-private" data-name="Icon/solid/user-private" xmlns="http://www.w3.org/2000/svg" width="24" height="24" viewBox="0 0 24 24"><path id="Rectangle_534" data-name="Rectangle 534" style="fill:none" d="M0 0h24v24H0z"/><path id="Union_19" data-name="Union 19" d="M11.432 17.146a1.212 1.212 0 0 1-1.213-1.2v-5.1a1.216 1.216 0 0 1 1.213-1.217h.492V7.551a3.467 3.467 0 0 1 3.465-3.465A3.424 3.424 0 0 1 17.844 5.1a3.479 3.479 0 0 1 1.02 2.455v2.078h.5a1.216 1.216 0 0 1 1.213 1.217v5.1a1.212 1.212 0 0 1-1.213 1.2Zm2.213-9.6v2.087h3.5V7.551a1.751 1.751 0 1 0-3.5 0ZM1.617 17.109A1.626 1.626 0 0 1 0 15.477 6.732 6.732 0 0 1 6.74 8.75h1.112a6.666 6.666 0 0 1 2.328.4 2.1 2.1 0 0 0-.861 1.7v5.082a2.079 2.079 0 0 0 .355 1.178ZM3.643 3.654A3.655 3.655 0 1 1 7.3 7.311a3.654 3.654 0 0 1-3.657-3.657Z" transform="translate(1.714 3.429)" style="fill:#fff"/></svg>
