<svg id="Icon" xmlns="http://www.w3.org/2000/svg" width="24" height="24" viewBox="0 0 24 24" fill="currentColor"><defs><style>.cls-1{fill:#8c8c8c}</style></defs><g id="Group" transform="translate(2 1)"><g id="Notification"><path id="Vector" class="cls-1" d="M18.167 17H1.833a1.833 1.833 0 0 1-1.1-3.3l.823-.618a1.493 1.493 0 0 0 .58-.956L3.17 5.854a6.911 6.911 0 0 1 13.66.005l1.032 6.267a1.493 1.493 0 0 0 .58.956l.824.618a1.833 1.833 0 0 1-1.1 3.3ZM10 1a5.879 5.879 0 0 0-5.842 5.012l-1.034 6.277a2.489 2.489 0 0 1-.967 1.594l-.824.618a.833.833 0 0 0 .5 1.5h16.334a.833.833 0 0 0 .5-1.5l-.824-.618a2.489 2.489 0 0 1-.967-1.594l-1.033-6.272A5.879 5.879 0 0 0 10 1Z" transform="translate(0 2)"/><path id="Vector-2" data-name="Vector" class="cls-1" d="M3.5 3.18a.5.5 0 0 1-.5-.5V2a1 1 0 0 0-2 0v.68a.5.5 0 0 1-1 0V2a2 2 0 0 1 4 0v.68a.5.5 0 0 1-.5.5Z" transform="translate(8)"/><path id="Vector-3" data-name="Vector" class="cls-1" d="M3.5 4A3.5 3.5 0 0 1 0 .5a.5.5 0 1 1 1 0 2.5 2.5 0 0 0 5 0 .5.5 0 1 1 1 0A3.5 3.5 0 0 1 3.5 4Z" transform="translate(6.5 18)"/></g></g></svg>
