<svg data-name="Icon/solid/company" xmlns="http://www.w3.org/2000/svg" width="14" height="14" viewBox="0 0 14 14" fill="currentColor"><path data-name="Rectangle 536" style="fill:none" d="M0 0h14v14H0z"/><path d="M9.625 12.688v-2.479a.438.438 0 0 0-.437-.438H4.812a.438.438 0 0 0-.437.438v2.479H3.063a.437.437 0 0 1-.437-.437V2.626a1.312 1.312 0 0 1 1.312-1.314h4.374a1.312 1.312 0 0 1 1.313 1.314v3.061h.438A1.314 1.314 0 0 1 11.375 7v5.246a.436.436 0 0 1-.437.437Zm-1-5.079a.583.583 0 1 0 .412-.171.58.58 0 0 0-.408.171Zm-2.042 0A.583.583 0 1 0 7 7.438a.583.583 0 0 0-.413.171Zm-2.041 0a.583.583 0 1 0 .412-.171.58.58 0 0 0-.408.171Zm2.045-2.042A.583.583 0 1 0 7 5.396a.586.586 0 0 0-.413.171Zm-2.041 0a.583.583 0 1 0 .412-.171.583.583 0 0 0-.412.171Zm2.041-2.041A.583.583 0 1 0 7 3.355a.583.583 0 0 0-.413.171Zm-2.041 0a.583.583 0 1 0 .412-.171.58.58 0 0 0-.412.171Zm2.892 9.162v-2.042H8.75v2.041Zm-2.188 0v-2.042h1.313v2.041Z"/></svg>
