<svg width="24" height="24" viewBox="0 0 24 24" fill="none" xmlns="http://www.w3.org/2000/svg">
<path d="M24 3.4248H0V19.4191H24V3.4248Z" fill="white"/>
<path d="M23.9143 3.51074H0.0856934V19.3336H23.9143V3.51074Z" stroke="#1F1F1F" stroke-width="0.1"/>
<path d="M5.14288 4.45312H18.8572V18.1674H5.14288V4.45312Z" fill="#FCFCFC"/>
<path d="M13.2858 10.8814C13.7821 10.8818 14.2593 11.0735 14.6178 11.4168C14.9764 11.76 15.1888 12.2283 15.2109 12.7242C14.8926 13.576 14.249 14.2665 13.4217 14.6438C12.5943 15.021 11.651 15.0542 10.7992 14.7359C9.94739 14.4177 9.25691 13.7741 8.87964 12.9467C8.50237 12.1194 8.46922 11.176 8.78748 10.3242C8.80492 10.7185 8.94303 11.098 9.18314 11.4113C9.42326 11.7245 9.75379 11.9565 10.13 12.0758C10.5063 12.1951 10.9101 12.196 11.2868 12.0783C11.6636 11.9607 11.9951 11.7302 12.2366 11.4179C12.3581 11.2561 12.5147 11.1238 12.6946 11.0312C12.8746 10.9386 13.0732 10.8879 13.2755 10.8831L13.2858 10.8814Z" fill="#0047A0"/>
<path d="M15.4286 11.5246C15.4289 11.9343 15.3557 12.3407 15.2126 12.7246C15.1905 12.2284 14.9779 11.7599 14.6189 11.4166C14.26 11.0733 13.7824 10.8817 13.2858 10.8818H13.2772C13.0747 10.8868 12.876 10.9377 12.6961 11.0307C12.5161 11.1236 12.3596 11.2562 12.2383 11.4183C11.997 11.7312 11.6654 11.9623 11.2883 12.0804C10.9113 12.1985 10.507 12.1978 10.1304 12.0784C9.75374 11.959 9.42289 11.7268 9.18268 11.413C8.94247 11.0993 8.8045 10.7194 8.78748 10.3246C9.06833 9.57131 9.60497 8.94064 10.3036 8.54285C11.0023 8.14506 11.8185 8.00544 12.6097 8.14839C13.4008 8.29135 14.1166 8.70779 14.6319 9.32493C15.1471 9.94207 15.4292 10.7207 15.4286 11.5246V11.5246Z" fill="#CD2E3A"/>
<path d="M6.46631 9.68652L8.39431 6.9013L8.74669 7.14523L6.81869 9.93045L6.46631 9.68652Z" fill="#2C2C2C"/>
<path d="M5.82349 9.25977L7.75149 6.47454L8.10387 6.71847L6.17587 9.50369L5.82349 9.25977Z" fill="#2C2C2C"/>
<path d="M5.1806 8.83105L7.10861 6.04583L7.46099 6.28976L5.53298 9.07498L5.1806 8.83105Z" fill="#2C2C2C"/>
<path d="M16.5343 16.3359L17.4241 15.0505L17.7765 15.2944L16.8867 16.5799L16.5343 16.3359Z" fill="#2C2C2C"/>
<path d="M17.6075 14.79L18.4651 13.5511L18.8175 13.795L17.9599 15.034L17.6075 14.79Z" fill="#2C2C2C"/>
<path d="M15.8915 15.9072L16.7491 14.6683L17.1015 14.9122L16.2439 16.1512L15.8915 15.9072Z" fill="#2C2C2C"/>
<path d="M16.9646 14.3613L17.8222 13.1224L18.1746 13.3663L17.317 14.6053L16.9646 14.3613Z" fill="#2C2C2C"/>
<path d="M15.2486 15.4795L16.1062 14.2405L16.4586 14.4844L15.601 15.7234L15.2486 15.4795Z" fill="#2C2C2C"/>
<path d="M16.3218 13.9307L17.1794 12.6917L17.5318 12.9356L16.6742 14.1746L16.3218 13.9307Z" fill="#2C2C2C"/>
<path d="M16.32 8.69434L16.6724 8.45041L17.53 9.68938L17.1777 9.93331L16.32 8.69434Z" fill="#2C2C2C"/>
<path d="M15.2486 7.14551L15.601 6.90158L16.4586 8.14055L16.1062 8.38448L15.2486 7.14551Z" fill="#2C2C2C"/>
<path d="M15.8932 6.7207L16.2456 6.47678L18.1736 9.262L17.8212 9.50593L15.8932 6.7207Z" fill="#2C2C2C"/>
<path d="M17.6058 7.83691L17.9582 7.59299L18.8158 8.83196L18.4634 9.07589L17.6058 7.83691Z" fill="#2C2C2C"/>
<path d="M16.5343 6.29102L16.8867 6.04709L17.7443 7.28606L17.392 7.52999L16.5343 6.29102Z" fill="#2C2C2C"/>
<path d="M5.17889 13.7871L5.53128 13.5432L7.45928 16.3284L7.1069 16.5723L5.17889 13.7871Z" fill="#2C2C2C"/>
<path d="M6.89832 14.9121L7.2505 14.6679L8.10818 15.9048L7.756 16.149L6.89832 14.9121Z" fill="#2C2C2C"/>
<path d="M5.82349 13.3564L6.17587 13.1125L7.06572 14.398L6.71333 14.6419L5.82349 13.3564Z" fill="#2C2C2C"/>
<path d="M6.4646 12.9316L6.81698 12.6877L8.74499 15.4729L8.3926 15.7169L6.4646 12.9316Z" fill="#2C2C2C"/>
</svg>
